%TF.GenerationSoftware,KiCad,Pcbnew,6.0.2-378541a8eb~116~ubuntu20.04.1*%
%TF.CreationDate,2022-03-13T12:00:14-05:00*%
%TF.ProjectId,bessel_filter,62657373-656c-45f6-9669-6c7465722e6b,1.0*%
%TF.SameCoordinates,Original*%
%TF.FileFunction,Copper,L1,Top*%
%TF.FilePolarity,Positive*%
%FSLAX46Y46*%
G04 Gerber Fmt 4.6, Leading zero omitted, Abs format (unit mm)*
G04 Created by KiCad (PCBNEW 6.0.2-378541a8eb~116~ubuntu20.04.1) date 2022-03-13 12:00:14*
%MOMM*%
%LPD*%
G01*
G04 APERTURE LIST*
G04 Aperture macros list*
%AMRoundRect*
0 Rectangle with rounded corners*
0 $1 Rounding radius*
0 $2 $3 $4 $5 $6 $7 $8 $9 X,Y pos of 4 corners*
0 Add a 4 corners polygon primitive as box body*
4,1,4,$2,$3,$4,$5,$6,$7,$8,$9,$2,$3,0*
0 Add four circle primitives for the rounded corners*
1,1,$1+$1,$2,$3*
1,1,$1+$1,$4,$5*
1,1,$1+$1,$6,$7*
1,1,$1+$1,$8,$9*
0 Add four rect primitives between the rounded corners*
20,1,$1+$1,$2,$3,$4,$5,0*
20,1,$1+$1,$4,$5,$6,$7,0*
20,1,$1+$1,$6,$7,$8,$9,0*
20,1,$1+$1,$8,$9,$2,$3,0*%
%AMFreePoly0*
4,1,6,1.000000,0.000000,0.500000,-0.750000,-0.500000,-0.750000,-0.500000,0.750000,0.500000,0.750000,1.000000,0.000000,1.000000,0.000000,$1*%
%AMFreePoly1*
4,1,6,0.500000,-0.750000,-0.650000,-0.750000,-0.150000,0.000000,-0.650000,0.750000,0.500000,0.750000,0.500000,-0.750000,0.500000,-0.750000,$1*%
G04 Aperture macros list end*
%TA.AperFunction,ComponentPad*%
%ADD10C,2.286000*%
%TD*%
%TA.AperFunction,ComponentPad*%
%ADD11C,3.500000*%
%TD*%
%TA.AperFunction,SMDPad,CuDef*%
%ADD12FreePoly0,180.000000*%
%TD*%
%TA.AperFunction,SMDPad,CuDef*%
%ADD13FreePoly1,180.000000*%
%TD*%
%TA.AperFunction,SMDPad,CuDef*%
%ADD14R,5.080000X1.500000*%
%TD*%
%TA.AperFunction,SMDPad,CuDef*%
%ADD15RoundRect,0.250000X0.650000X-0.412500X0.650000X0.412500X-0.650000X0.412500X-0.650000X-0.412500X0*%
%TD*%
%TA.AperFunction,SMDPad,CuDef*%
%ADD16RoundRect,0.250000X-0.650000X0.412500X-0.650000X-0.412500X0.650000X-0.412500X0.650000X0.412500X0*%
%TD*%
%TA.AperFunction,ViaPad*%
%ADD17C,0.508000*%
%TD*%
%TA.AperFunction,Conductor*%
%ADD18C,0.304800*%
%TD*%
G04 APERTURE END LIST*
D10*
%TO.P,L1,1,1*%
%TO.N,/sig_in*%
X132750000Y-78042899D03*
%TO.P,L1,2,2*%
%TO.N,/sig_out*%
X132750000Y-87957101D03*
D11*
%TO.P,L1,GND*%
%TO.N,/GND*%
X129384172Y-86365828D03*
X136115828Y-79634172D03*
%TD*%
D12*
%TO.P,JP2,1,A*%
%TO.N,Net-(C2-Pad2)*%
X121975000Y-85000000D03*
D13*
%TO.P,JP2,2,B*%
%TO.N,/GND*%
X120525000Y-85000000D03*
%TD*%
D12*
%TO.P,JP1,1,A*%
%TO.N,Net-(C1-Pad2)*%
X122000000Y-81250000D03*
D13*
%TO.P,JP1,2,B*%
%TO.N,/GND*%
X120550000Y-81250000D03*
%TD*%
D14*
%TO.P,J2,1,In*%
%TO.N,/sig_out*%
X115443000Y-90000000D03*
%TO.P,J2,2,Ext*%
%TO.N,/GND*%
X115443000Y-85750000D03*
X115443000Y-94250000D03*
%TD*%
%TO.P,J1,1,In*%
%TO.N,/sig_in*%
X115443000Y-75000000D03*
%TO.P,J1,2,Ext*%
%TO.N,/GND*%
X115443000Y-70750000D03*
X115443000Y-79250000D03*
%TD*%
D15*
%TO.P,C2,1*%
%TO.N,/sig_out*%
X124500000Y-88875000D03*
%TO.P,C2,2*%
%TO.N,Net-(C2-Pad2)*%
X124500000Y-85750000D03*
%TD*%
D16*
%TO.P,C1,1*%
%TO.N,/sig_in*%
X124500000Y-76750000D03*
%TO.P,C1,2*%
%TO.N,Net-(C1-Pad2)*%
X124500000Y-79875000D03*
%TD*%
D17*
%TO.N,/GND*%
X118700000Y-94250000D03*
X118714340Y-85750000D03*
X118625000Y-79250000D03*
X118800000Y-70750000D03*
%TD*%
D18*
%TO.N,/GND*%
X118625000Y-79250000D02*
X120496967Y-81121967D01*
X120550000Y-81250000D02*
G75*
G03*
X120496967Y-81121967I-181068J-1D01*
G01*
X115443000Y-94250000D02*
X118700000Y-94250000D01*
X115443000Y-85750000D02*
X118714340Y-85750000D01*
X115443000Y-79250000D02*
X118625000Y-79250000D01*
X115443000Y-70750000D02*
X118800000Y-70750000D01*
X120525000Y-85000000D02*
G75*
G02*
X118714340Y-85750000I-1810662J1810664D01*
G01*
%TO.N,Net-(C1-Pad2)*%
X123920495Y-80454505D02*
G75*
G02*
X122000000Y-81250000I-1920494J1920492D01*
G01*
X123920495Y-80454505D02*
X124500000Y-79875000D01*
%TO.N,Net-(C2-Pad2)*%
X122689340Y-85000001D02*
G75*
G02*
X124499999Y-85750001I3J-2560652D01*
G01*
X122689340Y-85000000D02*
X121975000Y-85000000D01*
%TO.N,/sig_out*%
X121784010Y-90000000D02*
G75*
G03*
X124500000Y-88875000I-1J3840991D01*
G01*
X121784010Y-90000000D02*
X115443000Y-90000000D01*
X130533996Y-88875000D02*
G75*
G03*
X132750000Y-87957101I1J3133899D01*
G01*
X130533996Y-88875000D02*
X124500000Y-88875000D01*
%TO.N,/sig_in*%
X124500000Y-76750000D02*
X129628666Y-76750000D01*
X132750000Y-78042899D02*
G75*
G03*
X129628666Y-76750000I-3121338J-3121343D01*
G01*
X115443000Y-75000000D02*
X120275127Y-75000000D01*
X124500000Y-76750000D02*
G75*
G03*
X120275127Y-75000000I-4224874J-4224874D01*
G01*
%TD*%
M02*
