%TF.GenerationSoftware,KiCad,Pcbnew,6.0.2-378541a8eb~116~ubuntu20.04.1*%
%TF.CreationDate,2022-03-14T14:09:01-05:00*%
%TF.ProjectId,bessel_filter,62657373-656c-45f6-9669-6c7465722e6b,1.0*%
%TF.SameCoordinates,Original*%
%TF.FileFunction,Legend,Top*%
%TF.FilePolarity,Positive*%
%FSLAX46Y46*%
G04 Gerber Fmt 4.6, Leading zero omitted, Abs format (unit mm)*
G04 Created by KiCad (PCBNEW 6.0.2-378541a8eb~116~ubuntu20.04.1) date 2022-03-14 14:09:01*
%MOMM*%
%LPD*%
G01*
G04 APERTURE LIST*
%ADD10C,0.130000*%
%ADD11C,0.150000*%
%ADD12C,0.120000*%
G04 APERTURE END LIST*
D10*
X120357142Y-97184571D02*
X120547619Y-97717904D01*
X120738095Y-97184571D01*
X121461904Y-97717904D02*
X121004761Y-97717904D01*
X121233333Y-97717904D02*
X121233333Y-96917904D01*
X121157142Y-97032190D01*
X121080952Y-97108380D01*
X121004761Y-97146476D01*
X121804761Y-97641714D02*
X121842857Y-97679809D01*
X121804761Y-97717904D01*
X121766666Y-97679809D01*
X121804761Y-97641714D01*
X121804761Y-97717904D01*
X122338095Y-96917904D02*
X122414285Y-96917904D01*
X122490476Y-96956000D01*
X122528571Y-96994095D01*
X122566666Y-97070285D01*
X122604761Y-97222666D01*
X122604761Y-97413142D01*
X122566666Y-97565523D01*
X122528571Y-97641714D01*
X122490476Y-97679809D01*
X122414285Y-97717904D01*
X122338095Y-97717904D01*
X122261904Y-97679809D01*
X122223809Y-97641714D01*
X122185714Y-97565523D01*
X122147619Y-97413142D01*
X122147619Y-97222666D01*
X122185714Y-97070285D01*
X122223809Y-96994095D01*
X122261904Y-96956000D01*
X122338095Y-96917904D01*
X117614285Y-98282095D02*
X117652380Y-98244000D01*
X117728571Y-98205904D01*
X117919047Y-98205904D01*
X117995238Y-98244000D01*
X118033333Y-98282095D01*
X118071428Y-98358285D01*
X118071428Y-98434476D01*
X118033333Y-98548761D01*
X117576190Y-99005904D01*
X118071428Y-99005904D01*
X118566666Y-98205904D02*
X118642857Y-98205904D01*
X118719047Y-98244000D01*
X118757142Y-98282095D01*
X118795238Y-98358285D01*
X118833333Y-98510666D01*
X118833333Y-98701142D01*
X118795238Y-98853523D01*
X118757142Y-98929714D01*
X118719047Y-98967809D01*
X118642857Y-99005904D01*
X118566666Y-99005904D01*
X118490476Y-98967809D01*
X118452380Y-98929714D01*
X118414285Y-98853523D01*
X118376190Y-98701142D01*
X118376190Y-98510666D01*
X118414285Y-98358285D01*
X118452380Y-98282095D01*
X118490476Y-98244000D01*
X118566666Y-98205904D01*
X119138095Y-98282095D02*
X119176190Y-98244000D01*
X119252380Y-98205904D01*
X119442857Y-98205904D01*
X119519047Y-98244000D01*
X119557142Y-98282095D01*
X119595238Y-98358285D01*
X119595238Y-98434476D01*
X119557142Y-98548761D01*
X119100000Y-99005904D01*
X119595238Y-99005904D01*
X119900000Y-98282095D02*
X119938095Y-98244000D01*
X120014285Y-98205904D01*
X120204761Y-98205904D01*
X120280952Y-98244000D01*
X120319047Y-98282095D01*
X120357142Y-98358285D01*
X120357142Y-98434476D01*
X120319047Y-98548761D01*
X119861904Y-99005904D01*
X120357142Y-99005904D01*
X120700000Y-98701142D02*
X121309523Y-98701142D01*
X121842857Y-98205904D02*
X121919047Y-98205904D01*
X121995238Y-98244000D01*
X122033333Y-98282095D01*
X122071428Y-98358285D01*
X122109523Y-98510666D01*
X122109523Y-98701142D01*
X122071428Y-98853523D01*
X122033333Y-98929714D01*
X121995238Y-98967809D01*
X121919047Y-99005904D01*
X121842857Y-99005904D01*
X121766666Y-98967809D01*
X121728571Y-98929714D01*
X121690476Y-98853523D01*
X121652380Y-98701142D01*
X121652380Y-98510666D01*
X121690476Y-98358285D01*
X121728571Y-98282095D01*
X121766666Y-98244000D01*
X121842857Y-98205904D01*
X122376190Y-98205904D02*
X122871428Y-98205904D01*
X122604761Y-98510666D01*
X122719047Y-98510666D01*
X122795238Y-98548761D01*
X122833333Y-98586857D01*
X122871428Y-98663047D01*
X122871428Y-98853523D01*
X122833333Y-98929714D01*
X122795238Y-98967809D01*
X122719047Y-99005904D01*
X122490476Y-99005904D01*
X122414285Y-98967809D01*
X122376190Y-98929714D01*
X123214285Y-98701142D02*
X123823809Y-98701142D01*
X124623809Y-99005904D02*
X124166666Y-99005904D01*
X124395238Y-99005904D02*
X124395238Y-98205904D01*
X124319047Y-98320190D01*
X124242857Y-98396380D01*
X124166666Y-98434476D01*
X125309523Y-98472571D02*
X125309523Y-99005904D01*
X125119047Y-98167809D02*
X124928571Y-98739238D01*
X125423809Y-98739238D01*
X129647380Y-89047619D02*
X129647380Y-89523809D01*
X128647380Y-89523809D01*
X129552142Y-88142857D02*
X129599761Y-88190476D01*
X129647380Y-88333333D01*
X129647380Y-88428571D01*
X129599761Y-88571428D01*
X129504523Y-88666666D01*
X129409285Y-88714285D01*
X129218809Y-88761904D01*
X129075952Y-88761904D01*
X128885476Y-88714285D01*
X128790238Y-88666666D01*
X128695000Y-88571428D01*
X128647380Y-88428571D01*
X128647380Y-88333333D01*
X128695000Y-88190476D01*
X128742619Y-88142857D01*
X129123571Y-86619047D02*
X129123571Y-86952380D01*
X129647380Y-86952380D02*
X128647380Y-86952380D01*
X128647380Y-86476190D01*
X129647380Y-86095238D02*
X128980714Y-86095238D01*
X128647380Y-86095238D02*
X128695000Y-86142857D01*
X128742619Y-86095238D01*
X128695000Y-86047619D01*
X128647380Y-86095238D01*
X128742619Y-86095238D01*
X129647380Y-85476190D02*
X129599761Y-85571428D01*
X129504523Y-85619047D01*
X128647380Y-85619047D01*
X128980714Y-85238095D02*
X128980714Y-84857142D01*
X128647380Y-85095238D02*
X129504523Y-85095238D01*
X129599761Y-85047619D01*
X129647380Y-84952380D01*
X129647380Y-84857142D01*
X129599761Y-84142857D02*
X129647380Y-84238095D01*
X129647380Y-84428571D01*
X129599761Y-84523809D01*
X129504523Y-84571428D01*
X129123571Y-84571428D01*
X129028333Y-84523809D01*
X128980714Y-84428571D01*
X128980714Y-84238095D01*
X129028333Y-84142857D01*
X129123571Y-84095238D01*
X129218809Y-84095238D01*
X129314047Y-84571428D01*
X129647380Y-83666666D02*
X128980714Y-83666666D01*
X129171190Y-83666666D02*
X129075952Y-83619047D01*
X129028333Y-83571428D01*
X128980714Y-83476190D01*
X128980714Y-83380952D01*
X128647380Y-82380952D02*
X128647380Y-81761904D01*
X129028333Y-82095238D01*
X129028333Y-81952380D01*
X129075952Y-81857142D01*
X129123571Y-81809523D01*
X129218809Y-81761904D01*
X129456904Y-81761904D01*
X129552142Y-81809523D01*
X129599761Y-81857142D01*
X129647380Y-81952380D01*
X129647380Y-82238095D01*
X129599761Y-82333333D01*
X129552142Y-82380952D01*
X129647380Y-81333333D02*
X128980714Y-81333333D01*
X129171190Y-81333333D02*
X129075952Y-81285714D01*
X129028333Y-81238095D01*
X128980714Y-81142857D01*
X128980714Y-81047619D01*
X129647380Y-80285714D02*
X128647380Y-80285714D01*
X129599761Y-80285714D02*
X129647380Y-80380952D01*
X129647380Y-80571428D01*
X129599761Y-80666666D01*
X129552142Y-80714285D01*
X129456904Y-80761904D01*
X129171190Y-80761904D01*
X129075952Y-80714285D01*
X129028333Y-80666666D01*
X128980714Y-80571428D01*
X128980714Y-80380952D01*
X129028333Y-80285714D01*
X128647380Y-78857142D02*
X128647380Y-78666666D01*
X128695000Y-78571428D01*
X128790238Y-78476190D01*
X128980714Y-78428571D01*
X129314047Y-78428571D01*
X129504523Y-78476190D01*
X129599761Y-78571428D01*
X129647380Y-78666666D01*
X129647380Y-78857142D01*
X129599761Y-78952380D01*
X129504523Y-79047619D01*
X129314047Y-79095238D01*
X128980714Y-79095238D01*
X128790238Y-79047619D01*
X128695000Y-78952380D01*
X128647380Y-78857142D01*
X129647380Y-78000000D02*
X128980714Y-78000000D01*
X129171190Y-78000000D02*
X129075952Y-77952380D01*
X129028333Y-77904761D01*
X128980714Y-77809523D01*
X128980714Y-77714285D01*
X129647380Y-76952380D02*
X128647380Y-76952380D01*
X129599761Y-76952380D02*
X129647380Y-77047619D01*
X129647380Y-77238095D01*
X129599761Y-77333333D01*
X129552142Y-77380952D01*
X129456904Y-77428571D01*
X129171190Y-77428571D01*
X129075952Y-77380952D01*
X129028333Y-77333333D01*
X128980714Y-77238095D01*
X128980714Y-77047619D01*
X129028333Y-76952380D01*
X129599761Y-76095238D02*
X129647380Y-76190476D01*
X129647380Y-76380952D01*
X129599761Y-76476190D01*
X129504523Y-76523809D01*
X129123571Y-76523809D01*
X129028333Y-76476190D01*
X128980714Y-76380952D01*
X128980714Y-76190476D01*
X129028333Y-76095238D01*
X129123571Y-76047619D01*
X129218809Y-76047619D01*
X129314047Y-76523809D01*
X129647380Y-75619047D02*
X128980714Y-75619047D01*
X129171190Y-75619047D02*
X129075952Y-75571428D01*
X129028333Y-75523809D01*
X128980714Y-75428571D01*
X128980714Y-75333333D01*
X131257380Y-86309523D02*
X130257380Y-86309523D01*
X130733571Y-86309523D02*
X130733571Y-85738095D01*
X131257380Y-85738095D02*
X130257380Y-85738095D01*
X130590714Y-84833333D02*
X131257380Y-84833333D01*
X130590714Y-85261904D02*
X131114523Y-85261904D01*
X131209761Y-85214285D01*
X131257380Y-85119047D01*
X131257380Y-84976190D01*
X131209761Y-84880952D01*
X131162142Y-84833333D01*
X130590714Y-83928571D02*
X131400238Y-83928571D01*
X131495476Y-83976190D01*
X131543095Y-84023809D01*
X131590714Y-84119047D01*
X131590714Y-84261904D01*
X131543095Y-84357142D01*
X131209761Y-83928571D02*
X131257380Y-84023809D01*
X131257380Y-84214285D01*
X131209761Y-84309523D01*
X131162142Y-84357142D01*
X131066904Y-84404761D01*
X130781190Y-84404761D01*
X130685952Y-84357142D01*
X130638333Y-84309523D01*
X130590714Y-84214285D01*
X130590714Y-84023809D01*
X130638333Y-83928571D01*
X131257380Y-83309523D02*
X131209761Y-83404761D01*
X131162142Y-83452380D01*
X131066904Y-83500000D01*
X130781190Y-83500000D01*
X130685952Y-83452380D01*
X130638333Y-83404761D01*
X130590714Y-83309523D01*
X130590714Y-83166666D01*
X130638333Y-83071428D01*
X130685952Y-83023809D01*
X130781190Y-82976190D01*
X131066904Y-82976190D01*
X131162142Y-83023809D01*
X131209761Y-83071428D01*
X131257380Y-83166666D01*
X131257380Y-83309523D01*
X130590714Y-82547619D02*
X131257380Y-82547619D01*
X130685952Y-82547619D02*
X130638333Y-82500000D01*
X130590714Y-82404761D01*
X130590714Y-82261904D01*
X130638333Y-82166666D01*
X130733571Y-82119047D01*
X131257380Y-82119047D01*
X131257380Y-81166666D02*
X131257380Y-81642857D01*
X130257380Y-81642857D01*
X131257380Y-80404761D02*
X130733571Y-80404761D01*
X130638333Y-80452380D01*
X130590714Y-80547619D01*
X130590714Y-80738095D01*
X130638333Y-80833333D01*
X131209761Y-80404761D02*
X131257380Y-80500000D01*
X131257380Y-80738095D01*
X131209761Y-80833333D01*
X131114523Y-80880952D01*
X131019285Y-80880952D01*
X130924047Y-80833333D01*
X130876428Y-80738095D01*
X130876428Y-80500000D01*
X130828809Y-80404761D01*
X131257380Y-79928571D02*
X130257380Y-79928571D01*
X130638333Y-79928571D02*
X130590714Y-79833333D01*
X130590714Y-79642857D01*
X130638333Y-79547619D01*
X130685952Y-79500000D01*
X130781190Y-79452380D01*
X131066904Y-79452380D01*
X131162142Y-79500000D01*
X131209761Y-79547619D01*
X131257380Y-79642857D01*
X131257380Y-79833333D01*
X131209761Y-79928571D01*
X131209761Y-79071428D02*
X131257380Y-78976190D01*
X131257380Y-78785714D01*
X131209761Y-78690476D01*
X131114523Y-78642857D01*
X131066904Y-78642857D01*
X130971666Y-78690476D01*
X130924047Y-78785714D01*
X130924047Y-78928571D01*
X130876428Y-79023809D01*
X130781190Y-79071428D01*
X130733571Y-79071428D01*
X130638333Y-79023809D01*
X130590714Y-78928571D01*
X130590714Y-78785714D01*
X130638333Y-78690476D01*
D11*
%TO.C,L1*%
X127272380Y-82154166D02*
X127272380Y-82630357D01*
X126272380Y-82630357D01*
X127272380Y-81297023D02*
X127272380Y-81868452D01*
X127272380Y-81582738D02*
X126272380Y-81582738D01*
X126415238Y-81677976D01*
X126510476Y-81773214D01*
X126558095Y-81868452D01*
%TO.C,C1*%
X120357142Y-73291666D02*
X120404761Y-73339285D01*
X120452380Y-73482142D01*
X120452380Y-73577380D01*
X120404761Y-73720238D01*
X120309523Y-73815476D01*
X120214285Y-73863095D01*
X120023809Y-73910714D01*
X119880952Y-73910714D01*
X119690476Y-73863095D01*
X119595238Y-73815476D01*
X119500000Y-73720238D01*
X119452380Y-73577380D01*
X119452380Y-73482142D01*
X119500000Y-73339285D01*
X119547619Y-73291666D01*
X120452380Y-72339285D02*
X120452380Y-72910714D01*
X120452380Y-72625000D02*
X119452380Y-72625000D01*
X119595238Y-72720238D01*
X119690476Y-72815476D01*
X119738095Y-72910714D01*
%TO.C,C2*%
X120857142Y-91791666D02*
X120904761Y-91839285D01*
X120952380Y-91982142D01*
X120952380Y-92077380D01*
X120904761Y-92220238D01*
X120809523Y-92315476D01*
X120714285Y-92363095D01*
X120523809Y-92410714D01*
X120380952Y-92410714D01*
X120190476Y-92363095D01*
X120095238Y-92315476D01*
X120000000Y-92220238D01*
X119952380Y-92077380D01*
X119952380Y-91982142D01*
X120000000Y-91839285D01*
X120047619Y-91791666D01*
X120047619Y-91410714D02*
X120000000Y-91363095D01*
X119952380Y-91267857D01*
X119952380Y-91029761D01*
X120000000Y-90934523D01*
X120047619Y-90886904D01*
X120142857Y-90839285D01*
X120238095Y-90839285D01*
X120380952Y-90886904D01*
X120952380Y-91458333D01*
X120952380Y-90839285D01*
%TO.C,J1*%
X114952380Y-68833333D02*
X115666666Y-68833333D01*
X115809523Y-68880952D01*
X115904761Y-68976190D01*
X115952380Y-69119047D01*
X115952380Y-69214285D01*
X115952380Y-67833333D02*
X115952380Y-68404761D01*
X115952380Y-68119047D02*
X114952380Y-68119047D01*
X115095238Y-68214285D01*
X115190476Y-68309523D01*
X115238095Y-68404761D01*
%TO.C,J2*%
X114952380Y-97333333D02*
X115666666Y-97333333D01*
X115809523Y-97380952D01*
X115904761Y-97476190D01*
X115952380Y-97619047D01*
X115952380Y-97714285D01*
X115047619Y-96904761D02*
X115000000Y-96857142D01*
X114952380Y-96761904D01*
X114952380Y-96523809D01*
X115000000Y-96428571D01*
X115047619Y-96380952D01*
X115142857Y-96333333D01*
X115238095Y-96333333D01*
X115380952Y-96380952D01*
X115952380Y-96952380D01*
X115952380Y-96333333D01*
D12*
%TO.C,L1*%
X124090000Y-81385436D02*
X124090000Y-82589564D01*
X125910000Y-81385436D02*
X125910000Y-82589564D01*
%TO.C,C1*%
X119590000Y-76226248D02*
X119590000Y-77648752D01*
X121410000Y-76226248D02*
X121410000Y-77648752D01*
%TO.C,C2*%
X121410000Y-88648752D02*
X121410000Y-87226248D01*
X119590000Y-88648752D02*
X119590000Y-87226248D01*
%TO.C,J1*%
X118653000Y-75000000D02*
X119153000Y-75250000D01*
X119153000Y-74750000D02*
X118653000Y-75000000D01*
X119153000Y-75250000D02*
X119153000Y-74750000D01*
%TO.C,J2*%
X119153000Y-89750000D02*
X118653000Y-90000000D01*
X118653000Y-90000000D02*
X119153000Y-90250000D01*
X119153000Y-90250000D02*
X119153000Y-89750000D01*
%TD*%
M02*
