%TF.GenerationSoftware,KiCad,Pcbnew,6.0.2-378541a8eb~116~ubuntu20.04.1*%
%TF.CreationDate,2022-03-14T14:09:01-05:00*%
%TF.ProjectId,bessel_filter,62657373-656c-45f6-9669-6c7465722e6b,1.0*%
%TF.SameCoordinates,Original*%
%TF.FileFunction,Copper,L1,Top*%
%TF.FilePolarity,Positive*%
%FSLAX46Y46*%
G04 Gerber Fmt 4.6, Leading zero omitted, Abs format (unit mm)*
G04 Created by KiCad (PCBNEW 6.0.2-378541a8eb~116~ubuntu20.04.1) date 2022-03-14 14:09:01*
%MOMM*%
%LPD*%
G01*
G04 APERTURE LIST*
G04 Aperture macros list*
%AMRoundRect*
0 Rectangle with rounded corners*
0 $1 Rounding radius*
0 $2 $3 $4 $5 $6 $7 $8 $9 X,Y pos of 4 corners*
0 Add a 4 corners polygon primitive as box body*
4,1,4,$2,$3,$4,$5,$6,$7,$8,$9,$2,$3,0*
0 Add four circle primitives for the rounded corners*
1,1,$1+$1,$2,$3*
1,1,$1+$1,$4,$5*
1,1,$1+$1,$6,$7*
1,1,$1+$1,$8,$9*
0 Add four rect primitives between the rounded corners*
20,1,$1+$1,$2,$3,$4,$5,0*
20,1,$1+$1,$4,$5,$6,$7,0*
20,1,$1+$1,$6,$7,$8,$9,0*
20,1,$1+$1,$8,$9,$2,$3,0*%
G04 Aperture macros list end*
%TA.AperFunction,SMDPad,CuDef*%
%ADD10RoundRect,0.250001X-0.624999X0.462499X-0.624999X-0.462499X0.624999X-0.462499X0.624999X0.462499X0*%
%TD*%
%TA.AperFunction,SMDPad,CuDef*%
%ADD11RoundRect,0.250000X-0.650000X0.412500X-0.650000X-0.412500X0.650000X-0.412500X0.650000X0.412500X0*%
%TD*%
%TA.AperFunction,SMDPad,CuDef*%
%ADD12RoundRect,0.250000X0.650000X-0.412500X0.650000X0.412500X-0.650000X0.412500X-0.650000X-0.412500X0*%
%TD*%
%TA.AperFunction,SMDPad,CuDef*%
%ADD13R,5.080000X1.500000*%
%TD*%
%TA.AperFunction,ViaPad*%
%ADD14C,0.508000*%
%TD*%
%TA.AperFunction,Conductor*%
%ADD15C,0.304800*%
%TD*%
G04 APERTURE END LIST*
D10*
%TO.P,L1,1,1*%
%TO.N,/sig_in*%
X125000000Y-80500000D03*
%TO.P,L1,2,2*%
%TO.N,/sig_out*%
X125000000Y-83475000D03*
%TD*%
D11*
%TO.P,C1,1*%
%TO.N,/sig_in*%
X120500000Y-75375000D03*
%TO.P,C1,2*%
%TO.N,/GND*%
X120500000Y-78500000D03*
%TD*%
D12*
%TO.P,C2,1*%
%TO.N,/sig_out*%
X120500000Y-89500000D03*
%TO.P,C2,2*%
%TO.N,/GND*%
X120500000Y-86375000D03*
%TD*%
D13*
%TO.P,J1,1,In*%
%TO.N,/sig_in*%
X115443000Y-75000000D03*
%TO.P,J1,2,Ext*%
%TO.N,/GND*%
X115443000Y-70750000D03*
X115443000Y-79250000D03*
%TD*%
%TO.P,J2,1,In*%
%TO.N,/sig_out*%
X115443000Y-90000000D03*
%TO.P,J2,2,Ext*%
%TO.N,/GND*%
X115443000Y-85750000D03*
X115443000Y-94250000D03*
%TD*%
D14*
%TO.N,/GND*%
X118714340Y-85750000D03*
X118800000Y-70750000D03*
X118625000Y-79250000D03*
X118700000Y-94250000D03*
%TD*%
D15*
%TO.N,/GND*%
X118625000Y-79250000D02*
X118689340Y-79250000D01*
X120500000Y-78500000D02*
G75*
G02*
X118689340Y-79250000I-1810662J1810664D01*
G01*
X118714340Y-85750000D02*
X118991117Y-85750000D01*
X120500000Y-86375000D02*
G75*
G03*
X118991117Y-85750000I-1508883J-1508883D01*
G01*
%TO.N,/sig_out*%
X119292894Y-89999999D02*
G75*
G03*
X120499999Y-89499999I-1J1707107D01*
G01*
X119292894Y-90000000D02*
X115443000Y-90000000D01*
X125000000Y-83475000D02*
X125000000Y-84878680D01*
X123500000Y-88500000D02*
G75*
G03*
X125000000Y-84878680I-3621329J3621324D01*
G01*
X121085787Y-89499999D02*
G75*
G03*
X123499999Y-88499999I3J3414204D01*
G01*
X121085787Y-89500000D02*
X120500000Y-89500000D01*
%TO.N,/sig_in*%
X120500000Y-75375000D02*
X120991117Y-75375000D01*
X122500000Y-76000000D02*
G75*
G03*
X120991117Y-75375000I-1508883J-1508883D01*
G01*
X122500000Y-76000000D02*
X123585786Y-77085786D01*
X125000000Y-80500000D02*
G75*
G03*
X123585786Y-77085786I-4828426J0D01*
G01*
X115443000Y-75000000D02*
X119594670Y-75000000D01*
X120500000Y-75375000D02*
G75*
G03*
X119594670Y-75000000I-905333J-905338D01*
G01*
%TO.N,/GND*%
X115443000Y-79250000D02*
X118625000Y-79250000D01*
X115443000Y-70750000D02*
X118800000Y-70750000D01*
X115443000Y-94250000D02*
X118700000Y-94250000D01*
X115443000Y-85750000D02*
X118714340Y-85750000D01*
%TD*%
M02*
