%TF.GenerationSoftware,KiCad,Pcbnew,6.0.2-378541a8eb~116~ubuntu20.04.1*%
%TF.CreationDate,2022-03-13T12:00:14-05:00*%
%TF.ProjectId,bessel_filter,62657373-656c-45f6-9669-6c7465722e6b,1.0*%
%TF.SameCoordinates,Original*%
%TF.FileFunction,Legend,Top*%
%TF.FilePolarity,Positive*%
%FSLAX46Y46*%
G04 Gerber Fmt 4.6, Leading zero omitted, Abs format (unit mm)*
G04 Created by KiCad (PCBNEW 6.0.2-378541a8eb~116~ubuntu20.04.1) date 2022-03-13 12:00:14*
%MOMM*%
%LPD*%
G01*
G04 APERTURE LIST*
%ADD10C,0.150000*%
%ADD11C,0.120000*%
G04 APERTURE END LIST*
D10*
%TO.C,L1*%
X137496040Y-87838057D02*
X137159322Y-88174775D01*
X136452216Y-87467668D01*
X138102132Y-87231966D02*
X137698071Y-87636027D01*
X137900101Y-87433996D02*
X137192994Y-86726889D01*
X137226666Y-86895248D01*
X137226666Y-87029935D01*
X137192994Y-87130950D01*
%TO.C,JP2*%
X120452380Y-88333333D02*
X121166666Y-88333333D01*
X121309523Y-88380952D01*
X121404761Y-88476190D01*
X121452380Y-88619047D01*
X121452380Y-88714285D01*
X121452380Y-87857142D02*
X120452380Y-87857142D01*
X120452380Y-87476190D01*
X120500000Y-87380952D01*
X120547619Y-87333333D01*
X120642857Y-87285714D01*
X120785714Y-87285714D01*
X120880952Y-87333333D01*
X120928571Y-87380952D01*
X120976190Y-87476190D01*
X120976190Y-87857142D01*
X120547619Y-86904761D02*
X120500000Y-86857142D01*
X120452380Y-86761904D01*
X120452380Y-86523809D01*
X120500000Y-86428571D01*
X120547619Y-86380952D01*
X120642857Y-86333333D01*
X120738095Y-86333333D01*
X120880952Y-86380952D01*
X121452380Y-86952380D01*
X121452380Y-86333333D01*
%TO.C,JP1*%
X120727380Y-79333333D02*
X121441666Y-79333333D01*
X121584523Y-79380952D01*
X121679761Y-79476190D01*
X121727380Y-79619047D01*
X121727380Y-79714285D01*
X121727380Y-78857142D02*
X120727380Y-78857142D01*
X120727380Y-78476190D01*
X120775000Y-78380952D01*
X120822619Y-78333333D01*
X120917857Y-78285714D01*
X121060714Y-78285714D01*
X121155952Y-78333333D01*
X121203571Y-78380952D01*
X121251190Y-78476190D01*
X121251190Y-78857142D01*
X121727380Y-77333333D02*
X121727380Y-77904761D01*
X121727380Y-77619047D02*
X120727380Y-77619047D01*
X120870238Y-77714285D01*
X120965476Y-77809523D01*
X121013095Y-77904761D01*
%TO.C,J2*%
X114952380Y-97333333D02*
X115666666Y-97333333D01*
X115809523Y-97380952D01*
X115904761Y-97476190D01*
X115952380Y-97619047D01*
X115952380Y-97714285D01*
X115047619Y-96904761D02*
X115000000Y-96857142D01*
X114952380Y-96761904D01*
X114952380Y-96523809D01*
X115000000Y-96428571D01*
X115047619Y-96380952D01*
X115142857Y-96333333D01*
X115238095Y-96333333D01*
X115380952Y-96380952D01*
X115952380Y-96952380D01*
X115952380Y-96333333D01*
%TO.C,J1*%
X114952380Y-68833333D02*
X115666666Y-68833333D01*
X115809523Y-68880952D01*
X115904761Y-68976190D01*
X115952380Y-69119047D01*
X115952380Y-69214285D01*
X115952380Y-67833333D02*
X115952380Y-68404761D01*
X115952380Y-68119047D02*
X114952380Y-68119047D01*
X115095238Y-68214285D01*
X115190476Y-68309523D01*
X115238095Y-68404761D01*
%TO.C,C2*%
X124857142Y-91166666D02*
X124904761Y-91214285D01*
X124952380Y-91357142D01*
X124952380Y-91452380D01*
X124904761Y-91595238D01*
X124809523Y-91690476D01*
X124714285Y-91738095D01*
X124523809Y-91785714D01*
X124380952Y-91785714D01*
X124190476Y-91738095D01*
X124095238Y-91690476D01*
X124000000Y-91595238D01*
X123952380Y-91452380D01*
X123952380Y-91357142D01*
X124000000Y-91214285D01*
X124047619Y-91166666D01*
X124047619Y-90785714D02*
X124000000Y-90738095D01*
X123952380Y-90642857D01*
X123952380Y-90404761D01*
X124000000Y-90309523D01*
X124047619Y-90261904D01*
X124142857Y-90214285D01*
X124238095Y-90214285D01*
X124380952Y-90261904D01*
X124952380Y-90833333D01*
X124952380Y-90214285D01*
%TO.C,C1*%
X124357142Y-74666666D02*
X124404761Y-74714285D01*
X124452380Y-74857142D01*
X124452380Y-74952380D01*
X124404761Y-75095238D01*
X124309523Y-75190476D01*
X124214285Y-75238095D01*
X124023809Y-75285714D01*
X123880952Y-75285714D01*
X123690476Y-75238095D01*
X123595238Y-75190476D01*
X123500000Y-75095238D01*
X123452380Y-74952380D01*
X123452380Y-74857142D01*
X123500000Y-74714285D01*
X123547619Y-74666666D01*
X124452380Y-73714285D02*
X124452380Y-74285714D01*
X124452380Y-74000000D02*
X123452380Y-74000000D01*
X123595238Y-74095238D01*
X123690476Y-74190476D01*
X123738095Y-74285714D01*
D11*
%TO.C,L1*%
X140174621Y-83000000D02*
X137876524Y-80701903D01*
X132750000Y-75575379D02*
X135048097Y-77873476D01*
X127623476Y-85298097D02*
X125325379Y-83000000D01*
X125325379Y-83000000D02*
X132750000Y-75575379D01*
X130451903Y-88126524D02*
X132750000Y-90424621D01*
X132750000Y-90424621D02*
X140174621Y-83000000D01*
%TO.C,JP2*%
X122650000Y-84000000D02*
X122650000Y-86000000D01*
X119850000Y-84000000D02*
X122650000Y-84000000D01*
X119850000Y-86000000D02*
X119850000Y-84000000D01*
X122650000Y-86000000D02*
X119850000Y-86000000D01*
%TO.C,JP1*%
X122675000Y-80250000D02*
X122675000Y-82250000D01*
X119875000Y-80250000D02*
X122675000Y-80250000D01*
X119875000Y-82250000D02*
X119875000Y-80250000D01*
X122675000Y-82250000D02*
X119875000Y-82250000D01*
%TO.C,J2*%
X118653000Y-90000000D02*
X119153000Y-90250000D01*
X119153000Y-90250000D02*
X119153000Y-89750000D01*
X119153000Y-89750000D02*
X118653000Y-90000000D01*
%TO.C,J1*%
X118653000Y-75000000D02*
X119153000Y-75250000D01*
X119153000Y-75250000D02*
X119153000Y-74750000D01*
X119153000Y-74750000D02*
X118653000Y-75000000D01*
%TO.C,C2*%
X125410000Y-88023752D02*
X125410000Y-86601248D01*
X123590000Y-88023752D02*
X123590000Y-86601248D01*
%TO.C,C1*%
X123590000Y-77601248D02*
X123590000Y-79023752D01*
X125410000Y-77601248D02*
X125410000Y-79023752D01*
%TD*%
M02*
